<svg xmlns="http://www.w3.org/2000/svg" xmlns:xlink="http://www.w3.org/1999/xlink">


    <symbol id="homepage-header-zone-icon-DotSeparator" viewBox="0 0 6 6" fill="none">
        <circle cx="3" cy="3" r="3" fill="#E6E6F0"/>
    </symbol>

    <symbol id="homepage-header-zone-icon-Facebook" viewBox="0 0 24 24" fill="none">
        <path d="M24 12.0733C24 5.40541 18.6274 0 12 0C5.37258 0 0 5.40541 0 12.0733C0 18.0995 4.38823 23.0943 10.125 24V15.5633H7.07813V12.0733H10.125V9.41343C10.125 6.38755 11.9165 4.71615 14.6576 4.71615C15.9705 4.71615 17.3438 4.95195 17.3438 4.95195V7.92313H15.8306C14.3399 7.92313 13.875 8.85379 13.875 9.80857V12.0733H17.2031L16.6711 15.5633H13.875V24C19.6118 23.0943 24 18.0995 24 12.0733Z"
              fill="white"/>
    </symbol>

    <symbol id="homepage-header-zone-icon-Facebook-hover" viewBox="0 0 24 24" fill="none">
        <path d="M24 12.0733C24 5.40541 18.6274 0 12 0C5.37258 0 0 5.40541 0 12.0733C0 18.0995 4.38823 23.0943 10.125 24V15.5633H7.07813V12.0733H10.125V9.41343C10.125 6.38755 11.9165 4.71615 14.6576 4.71615C15.9705 4.71615 17.3438 4.95195 17.3438 4.95195V7.92313H15.8306C14.3399 7.92313 13.875 8.85379 13.875 9.80857V12.0733H17.2031L16.6711 15.5633H13.875V24C19.6118 23.0943 24 18.0995 24 12.0733Z"
              fill="#24A3FF"/>
    </symbol>



    <symbol id="homepage-header-zone-icon-ScrollRight" width="8" height="12" viewBox="0 0 8 12" fill="none">
        <path d="M1.5 1.5L6 6L1.5 10.5" stroke="white" stroke-width="2"/>
    </symbol>

    <symbol id="homepage-team__icon-scroll" width="8" height="12" viewBox="0 0 8 12" fill="none">
        <path d="M1.5 1.5L6 6L1.5 10.5" stroke="#24A3FF" stroke-width="2"/>
    </symbol>




    <svg id="m-menu__toggle(-)" width="20" height="20" viewBox="0 0 20 20" fill="none" stroke="#FFFFFF" stroke-width="2"
         stroke-linecap="butt" stroke-linejoin="arcs">
        <line x1="3" y1="12" x2="21" y2="12"></line>
        <line x1="3" y1="6" x2="21" y2="6"></line>
        <line x1="3" y1="18" x2="21" y2="18"></line>
    </svg>


    <svg id="m-menu__toggle(X)" width="35" height="35" viewBox="0 0 24 24" fill="none" stroke="#EC6F5D" stroke-width="2"
         stroke-linecap="butt" stroke-linejoin="arcs">
        <line x1="18" y1="6" x2="6" y2="18"></line>
        <line x1="6" y1="6" x2="18" y2="18"></line>
    </svg>




</svg>




